<svg xmlns="http://www.w3.org/2000/svg" width="512" height="512"><path fill="#D84D20" d="M253.563 179.563c1.32 0 2.63-.01 3.99-.01 10.56.13 19.58 1.86 29.45 5.45.75.15 1.5.3 2.27.46 4.45 1.38 7.3 6.84 9.6 10.6 1.33 3.46 1.79 5.27 1.13 8.94-3.2 6.12-7.96 9.68-13.73 13.26-2.58 1.97-3.69 3.94-5.27 6.74.68.06 1.37.12 2.08.18 22.34 2.01 44.42 5.27 64.92 14.82.97.43.97.43 1.96.88 12.43 5.62 23.33 12.67 32.67 22.74 1.52 1.62 1.52 1.62 4.37 3.38 1.67 1.32 3.34 2.65 5 4 1.2.77 1.2.77 2.44 1.56 4.9 4.67 8.24 10.17 8.9 16.98-.02 2.27-.09 4.54-.23 6.81-.33 2.62-.33 2.62.89 4.65l2-1c13.65-.56 27.98.08 39 9a31.48 31.48 0 0 1 9.44 21.06c-1.28 11.43-5.54 20-14.5 27.31-8.63 6.63-8.63 6.63-11.94 6.63v3c-.93.07-1.86.14-2.82.21-5.4.77-10.18 3.14-15.12 5.35-.97.42-1.94.85-2.94 1.29-2.38 1.04-4.75 2.09-7.12 3.15l-.14 2.68c-1.65 31.6-4.27 60.97-28.4 84.22-28.94 24.67-69.43 30.14-106.24 30.3l-3.29.02c-3.48.02-6.95.03-10.43.03h-3.6c-23.54-.01-46-1.67-69.1-6.48-3.48-.84-3.48-.84-5.8-.77v-2q-1.245-.15-2.52-.3c-3.99-.8-7.49-2.23-11.17-3.89-1.06-.48-1.06-.48-2.14-.96-2.06-.94-4.12-1.89-6.17-2.85-1-.47-2-.93-3.03-1.41-10.94-5.52-20.11-13.71-27.39-23.5-1.46-2.06-1.46-2.06-3.06-3.45-1.75-1.89-2.55-3.58-3.53-5.95-.35-.83-.69-1.66-1.05-2.51-.35-.87-.7-1.73-1.07-2.62l-1.09-2.6c-7.72-18.64-7.22-39.12-6.78-58.96-.72-.13-1.43-.25-2.17-.38-12.88-2.85-27.38-9.52-37.83-17.62-.74-.56-1.48-1.13-2.24-1.71-6.66-5.41-11.19-11.74-12.76-20.29-.84-9.12.41-16.58 5.51-24.28.49-.57.98-1.14 1.49-1.72h2v-2c7.98-4.51 14.93-6.87 24-8 .71-.2 1.42-.4 2.15-.61 1.85-.39 1.85-.39 4.85.61 1.89.07 3.79.08 5.68.06l3.02-.03 2.3-.03c-.03-1-.05-2.01-.07-3.04l-.06-4.02c-.02-1.32-.04-2.63-.07-3.98.26-5.16.93-9.37 4.2-13.46 3.36-2.81 6.91-5.22 10.52-7.69 2.22-1.62 4.03-3.26 5.92-5.25 11.47-11.98 27.06-20.12 42.56-25.56.62-.23 1.25-.45 1.9-.68 18.29-6.38 38.66-10.69 58.1-10.32-.11-2.45-.11-2.45-1-5a74 74 0 0 0-5-2c-6.65-3.27-12.5-6.69-15-14-.44-4.33.67-7.35 2.62-11.19 5.44-6.44 11.3-8.81 19.38-10.81.91-.24.91-.24 1.84-.47 9.25-2.27 18.21-2.95 27.72-2.97m-167.56 157.44c3.52 3.04 6.82 5 11.12 6.75 1.04.43 2.07.85 3.14 1.29 2.73 1.12 2.73 1.12 5.74.96.14-2.92.14-2.92-1-6-6.2-3.45-12.04-3.35-19-3m310 6c.99 1.48.99 1.48 2 3 4.22-.48 6.79-1.17 10-4h-3v-3c-4.56-.51-6.08.54-9 4m-1 1v3l3-1h-2z"/><path fill="#4F2112" d="M253.563 179.563c1.32 0 2.63-.01 3.99-.01 10.56.13 19.58 1.86 29.45 5.45.75.15 1.5.3 2.27.46 4.45 1.38 7.3 6.84 9.6 10.6 1.33 3.46 1.79 5.27 1.13 8.94-3.2 6.12-7.96 9.68-13.73 13.26-2.58 1.97-3.69 3.94-5.27 6.74.68.06 1.37.12 2.08.18 22.34 2.01 44.42 5.27 64.92 14.82.97.43.97.43 1.96.88 12.43 5.62 23.33 12.67 32.67 22.74 1.52 1.62 1.52 1.62 4.37 3.38 1.67 1.32 3.34 2.65 5 4 1.2.77 1.2.77 2.44 1.56 4.9 4.67 8.24 10.17 8.9 16.98-.02 2.27-.09 4.54-.23 6.81-.33 2.62-.33 2.62.89 4.65l2-1c13.65-.56 27.98.08 39 9a31.48 31.48 0 0 1 9.44 21.06c-1.28 11.43-5.54 20-14.5 27.31-8.63 6.63-8.63 6.63-11.94 6.63v3c-.93.07-1.86.14-2.82.21-5.4.77-10.18 3.14-15.12 5.35-.97.42-1.94.85-2.94 1.29-2.38 1.04-4.75 2.09-7.12 3.15l-.14 2.68c-1.65 31.6-4.27 60.97-28.4 84.22-28.94 24.67-69.43 30.14-106.24 30.3l-3.29.02c-3.48.02-6.95.03-10.43.03h-3.6c-23.54-.01-46-1.67-69.1-6.48-3.48-.84-3.48-.84-5.8-.77v-2q-1.245-.15-2.52-.3c-3.99-.8-7.49-2.23-11.17-3.89-1.06-.48-1.06-.48-2.14-.96-2.06-.94-4.12-1.89-6.17-2.85-1-.47-2-.93-3.03-1.41-10.94-5.52-20.11-13.71-27.39-23.5-1.46-2.06-1.46-2.06-3.06-3.45-1.75-1.89-2.55-3.58-3.53-5.95-.35-.83-.69-1.66-1.05-2.51-.35-.87-.7-1.73-1.07-2.62l-1.09-2.6c-7.72-18.64-7.22-39.12-6.78-58.96-.72-.13-1.43-.25-2.17-.38-12.88-2.85-27.38-9.52-37.83-17.62-.74-.56-1.48-1.13-2.24-1.71-6.66-5.41-11.19-11.74-12.76-20.29-.84-9.12.41-16.58 5.51-24.28.49-.57.98-1.14 1.49-1.72h2v-2c7.98-4.51 14.93-6.87 24-8 .71-.2 1.42-.4 2.15-.61 1.85-.39 1.85-.39 4.85.61 1.89.07 3.79.08 5.68.06l3.02-.03 2.3-.03c-.03-1-.05-2.01-.07-3.04l-.06-4.02c-.02-1.32-.04-2.63-.07-3.98.26-5.16.93-9.37 4.2-13.46 3.36-2.81 6.91-5.22 10.52-7.69 2.22-1.62 4.03-3.26 5.92-5.25 11.47-11.98 27.06-20.12 42.56-25.56.62-.23 1.25-.45 1.9-.68 18.29-6.38 38.66-10.69 58.1-10.32-.11-2.45-.11-2.45-1-5a74 74 0 0 0-5-2c-6.65-3.27-12.5-6.69-15-14-.44-4.33.67-7.35 2.62-11.19 5.44-6.44 11.3-8.81 19.38-10.81.91-.24.91-.24 1.84-.47 9.25-2.27 18.21-2.95 27.72-2.97m-140.56 107.44c-.96 8.66-.96 8.66 1.56 16.72 1.26 1.48 2.55 2.94 3.88 4.37 1.56 1.91 1.56 1.91 2 5.47-.15.8-.29 1.61-.44 2.44-5.58-.48-10.61-1.43-16-3-11.44-1.7-25.73-3.56-35.8 3.2-3.48 2.75-5.99 5.15-6.57 9.65-.15 7.5.26 12.49 5.37 18.15.52.58 1.04 1.16 1.58 1.76 11.5 11.19 28.77 16.49 43.34 22.33 2.08.91 2.08.91 3.08 1.91.18 2.69.3 5.37.39 8.06l.21 5.11q.165 4.005.3 8.01c.86 25.7 7.19 47.56 26.1 65.82 3.18 2.64 6.45 4.89 10 7l2.21 1.32c12.53 6.81 27.4 11.03 41.55 12.4 2.24.28 4.36.74 6.55 1.28 9.73 2.27 19.87 2.16 29.82 2.2l3.72.02c2.59.01 5.18.01 7.78.02 3.87.01 7.74.04 11.61.07 36.1.15 81.71-1.53 109.11-28.57 15.7-16.25 21.57-36.73 21.75-58.95.02-1.31.03-2.61.05-3.96.02-2.05.03-4.1.02-6.15-.01-2.01.03-4.01.06-6.01 0-1.19.01-2.37.01-3.59.76-3.08.76-3.08 3.44-5.34 3.02-1.58 5.97-3 9.13-4.26 1.09-.44 2.18-.88 3.3-1.34 1.14-.46 2.28-.92 3.45-1.39 19.64-7.98 19.64-7.98 34.44-22.75 2.06-5.81 1.92-12.73-.38-18.38-7.57-7.57-16.76-8.89-27.04-8.95-10.92.18-21.38 3.68-31.58 7.33.27-6.17 1.12-9.99 5-15 2.79-3.93 3.34-6.51 3.18-11.32-.02-1.06-.05-2.13-.08-3.23-.03-.81-.07-1.62-.1-2.45-4.24 2-8.05 4.58-11.96 7.15-6.55 3.98-13.06 6.72-20.42 8.85-.88.25-1.76.51-2.67.77-2.65.76-5.3 1.5-7.95 2.23-.7.19-1.4.39-2.12.59-10.84 2.98-21.93 4.29-33.07 5.59-1.06.13-1.06.13-2.15.26-57.14 6.74-139.01 11.27-189.66-21.44-1.35-1.32-2.68-2.65-4-4z"/><path fill="#D84E21" d="m223.25 237.563 3.7-.12c3.05.56 3.05.56 4.72 2.96.44.86.88 1.71 1.33 2.6 5.05 3.39 11.55 2.33 17.37 2.31 1.22.02 2.44.03 3.7.05h3.58c1.61.01 1.61.01 3.25.01 3.6-.43 6.01-1.52 9.1-3.37.66-1.07.66-1.07 1.34-2.15 1.66-1.85 1.66-1.85 5.45-2.42 1.61-.03 3.22-.02 4.84.01l2.64.02c11.48.33 22.6 2.89 33.73 5.54 1.1.25 1.1.25 2.23.51 9.54 2.26 18.06 6.1 26.77 10.49 1 .49 2.01.99 3.04 1.5 6.66 3.44 12.26 7.66 17.96 12.5.78.61 1.56 1.22 2.37 1.85 5.4 4.36 5.4 4.36 6.63 8.59v2.56c-46.18 33.93-135.95 27.73-189.57 19.91-47.68-7.3-47.68-7.3-62.43-19.91.32-5.3 3.32-8.5 7-12 3.87-3.19 7.88-6.13 12-9 .76-.54 1.52-1.07 2.3-1.63 21.84-14.25 51.24-19.98 76.95-20.81"/><path fill="#4E2314" d="M255.734 16.785c9.56.63 17.96 8.56 24.27 15.21 11.01 13.08 14.95 28.25 14.17 45.02-.35 4.03-1.38 7.86-2.52 11.73-.75 2.18-.75 2.18-.65 4.25-.98 1.03-1.99 2.02-3 3-1.08 1.41-2.14 2.83-3.19 4.25-4.18 5.42-8.93 9.61-14.4 13.68-6.24 4.71-10.55 8.51-11.78 16.45-.58 10.94 4.75 18.67 11.34 26.86 1.88 2.56 3.01 4.77 4.03 7.76-9.64 3.81-19.63.34-28.86-3.45-5.22-2.57-9.69-5.83-14.14-9.55-.67-.55-1.34-1.11-2.03-1.68-8.7-7.94-12.75-18.51-13.35-30.07.39-15.56 8.66-27.19 19.41-37.5 2.36-2.2 4.76-4.34 7.22-6.43 8.8-7.61 15.71-15.74 17.15-27.69.24-8.71-1.38-14.65-6.15-21.81-2.27-3.45-2.27-3.45-2.13-6.75 1.28-3.02 1.28-3.02 4.61-3.28"/><path fill="#F6DDBE" d="M113 287c2.82 1.33 5.24 2.85 7.75 4.69 4.16 2.79 8.43 4.92 13 6.93.62.28 1.24.56 1.87.84 51.75 22.22 120.3 19.26 174.94 12.79.74-.09 1.48-.17 2.25-.26 12.62-1.48 24.92-3.62 37.19-6.99.73-.19 1.46-.38 2.22-.58 11.39-3.02 23.04-7.4 32.08-15.17C387 287 387 287 389 287c.08 1.9.14 3.79.19 5.69.03 1.05.07 2.11.1 3.2-.44 4.71-2.42 7.22-5.67 10.55-19.27 15.13-49.45 17.05-72.93 18.81-1.09.08-2.18.17-3.3.26-19.61 1.48-39.17 1.84-58.83 1.8h-2.02c-20.63-.04-41.28-.21-61.79-2.62-1.12-.13-2.23-.26-3.38-.39-8-.95-15.97-2.06-23.93-3.3-1.51-.23-1.51-.23-3.04-.47-14.1-2.29-29.26-6.42-39.64-16.76-2.27-3.58-2.17-5.89-2.01-10.08.04-1.26.07-2.51.11-3.8z"/><path fill="#F5DEBF" d="M272 45c4.97 1.94 6.57 5.31 8.78 9.98 3.47 9.76 3.13 23.3-1.09 32.71-5.06 8.26-12.37 14.61-20 20.43-5.49 4.27-9.56 9.08-11.57 15.82L248 127c-.06.73-.12 1.45-.18 2.2-.45 8.6 2.02 15.96 7.18 22.8v2c-9.49-1.47-16.4-7.51-22-15-5.52-7.62-5.87-16.91-5-26 3.13-12.66 12.66-21.57 22.5-29.44 4.73-3.83 8.83-7.69 12.5-12.56.82-1.07.82-1.07 1.65-2.16 5.03-7.36 6.13-15.2 7.35-23.84"/><path fill="#F8DDBD" d="m157 340 3 2c.66 3.88-.11 6.49-1.75 9.94-9.68 20.92-8.4 45.34-.94 66.83 1.45 3.56 3.04 6.98 4.82 10.38 1.16 2.46 1.21 4.16.87 6.85-1.63 2.63-2.79 2.95-5.81 3.69-4.27-.92-5.37-2.69-7.75-6.23-4.66-7.97-7.9-16.6-10.44-25.46-.18-.62-.36-1.24-.54-1.87-5.34-20.62-2.32-43.2 7.86-61.62 2.98-4.46 5.56-4.94 10.68-4.51"/><path fill="#F8DABA" d="M174 257c5.36-.15 10.14.03 15.36 1.25 18.39 4.3 36.28 6.24 55.17 6.09 3.17-.03 6.33-.02 9.5-.02 16.35-.02 32.08-1.39 48.16-4.44 6.02-1.15 11.67-2.13 17.81-1.88l1 4c-23.18 13.03-52.49 12.15-78.25 12.31l-2.66.03c-22.19.21-44.39-2.95-65.09-11.34l-2-2c.38-2.12.38-2.12 1-4"/><path fill="#552212" d="m91.063 323.563 2.32.03c10.31.3 17.52 3.89 24.62 11.41 1.23 2.47 1.13 4.18 1.12 6.94.01 1.31.01 1.31.01 2.65-.13 2.41-.13 2.41-1.13 5.41-6.63.25-6.63.25-10-2v-2h-2l-1-6c-1.15-.22-1.15-.22-2.32-.44-2.68-.56-2.68-.56-5.68-1.56-3.55-.16-7.1-.26-10.65-.33-3.35-.67-3.35-.67-5.8-3.06-1.55-2.61-1.55-2.61-1.49-5.24 2.35-5.95 6.07-5.89 12-5.81"/><path fill="#522112" d="M423 327c.84 3.87.31 5.5-1.75 8.88-4.28 2.79-7.17 2.27-12.16 2.03-4.61.13-8.12 1.85-12.09 4.09l1 4h-2l-1.12 1.94c-2.89 3.17-5.68 2.78-9.88 3.06-2.14-4.28-1.7-9.38-1-14 3.19-6.05 8.64-9.8 15-12 7.66-1.77 17.47-3 24 2"/><path fill="#F0D8BA" d="M251.438 191.875c.85 0 1.7-.01 2.58-.01 4.44.01 8.61.24 12.98 1.13v4c-.8.09-1.61.17-2.44.25-3.69.37-7.37.75-11.06 1.13-1.27.13-2.53.25-3.84.38-7.66.77-7.66.77-15.19 2.34-3.33.87-6.04 1.12-9.47 1.03-.95-.02-1.9-.04-2.87-.05-.7-.03-1.41-.05-2.13-.08l-1-5c10.24-5.68 21.04-5.06 32.44-5.12"/><path fill="#E50100" d="m414 337-1 3c-1.32.37-2.66.71-4 1l-1 2-3-1c-.69-2.06-.69-2.06-1-4 3.21-1.61 6.44-1.06 10-1"/><path fill="#361209" d="m111 270 2 1c-1.29 1.34-2.58 2.67-3.88 4-.71.74-1.43 1.49-2.17 2.25C105 279 105 279 103 279l-1 3-1-2a615 615 0 0 1 3.31-3.88c.62-.71 1.23-1.43 1.87-2.17C108 272 108 272 111 270"/><path fill="#DDC2AA" d="M272 45c2.99 1.1 3.85 1.68 5.25 4.62.25.79.5 1.57.75 2.38h-6z"/><path d="M19 411c.99.5.99.5 2 1-.99.5-.99.5-2 1z"/><path fill="#030000" d="m417 299 2 1Z"/></svg>